# 3ds Max Wavefront OBJ Exporter v0.97b - (c)2007 guruware
# File Created: 05.12.2017 16:38:55

mtllib TestBox.mtl

#
# object Rectangle25
#

v  1280.0725 4559.6768 -955.1771
v  1280.0725 3706.2568 -955.1771
v  1280.0725 3706.2568 -1724.6318
v  1280.0725 4559.6768 -1724.6318
v  750.0138 4559.6768 -955.1771
v  750.0138 4559.6768 -1724.6318
v  750.0138 3706.2571 -955.1771
v  750.0137 3706.2571 -1724.6318
# 8 vertices

vn 0.5774 0.5774 0.5774
vn 0.5774 -0.5774 0.5774
vn 0.5774 -0.5774 -0.5774
vn 0.5774 0.5774 -0.5774
vn -0.5774 0.5774 0.5774
vn -0.5774 0.5774 -0.5774
vn -0.5774 -0.5774 0.5774
vn -0.5774 -0.5774 -0.5774
# 8 vertex normals

vt 0.9995 0.9995 0.9995
vt 0.2207 0.9995 0.9995
vt 0.2207 0.0005 0.9995
vt 0.9995 0.0005 0.9995
vt 0.9995 0.9995 0.0005
vt 0.0005 0.9995 0.0005
vt 0.0005 0.0005 0.0005
vt 0.9995 0.0005 0.0005
vt 0.7793 0.9995 0.0005
vt 0.7793 0.0005 0.0005
vt 0.9995 0.9995 0.7793
vt 0.0005 0.9995 0.7793
vt 0.0005 0.0005 0.7793
vt 0.9995 0.0005 0.7793
vt 0.2207 0.9995 0.0005
vt 0.2207 0.0005 0.0005
vt 0.7793 0.9995 0.9995
vt 0.0005 0.9995 0.9995
vt 0.0005 0.0005 0.9995
vt 0.7793 0.0005 0.9995
# 20 texture coords

o Rectangle25
g Rectangle25
usemtl Map_Material__2
s 1
f 1/1/1 2/2/2 3/3/3 
f 3/3/3 4/4/4 1/1/1 
s 4
f 5/5/5 1/6/1 4/7/4 
f 4/7/4 6/8/6 5/5/5 
s 2
f 7/9/7 5/6/5 6/7/6 
f 6/7/6 8/10/8 7/9/7 
s 4
f 2/11/2 7/12/7 8/13/8 
f 8/13/8 3/14/3 2/11/2 
s 16
f 6/8/6 4/5/4 3/15/3 
f 3/15/3 8/16/8 6/8/6 
f 2/17/2 1/18/1 5/19/5 
f 5/19/5 7/20/7 2/17/2 
# 0 polygons - 12 triangles

